<?xml version="1.0" encoding="UTF-8" standalone="no" ?>
<!DOCTYPE svg PUBLIC "-//W3C//DTD SVG 1.1//EN" "http://www.w3.org/Graphics/SVG/1.1/DTD/svg11.dtd">
<svg xmlns="http://www.w3.org/2000/svg" xmlns:xlink="http://www.w3.org/1999/xlink" version="1.1" width="1000" height="350" viewBox="0 0 1000 350" xml:space="preserve">
<desc>Created with Fabric.js 5.2.4</desc>
<defs>
</defs>
<g transform="matrix(1 0 0 1 500 175)" id="ae34abe1-bc46-4e7d-9387-86c2934bd0ec"  >
<rect style="stroke: none; stroke-width: 1; stroke-dasharray: none; stroke-linecap: butt; stroke-dashoffset: 0; stroke-linejoin: miter; stroke-miterlimit: 4; fill: rgb(255,255,255); fill-rule: nonzero; opacity: 1; visibility: hidden;" vector-effect="non-scaling-stroke"  x="-500" y="-175" rx="0" ry="0" width="1000" height="350" />
</g>
<g transform="matrix(Infinity NaN NaN Infinity 0 0)" id="d641ba22-32cf-43eb-aec2-624678cab893"  >
</g>
<g transform="matrix(0.7 0 0 0.7 500 175)" id="path0"  >
<path style="stroke: rgb(0,0,0); stroke-width: 0; stroke-dasharray: none; stroke-linecap: butt; stroke-dashoffset: 0; stroke-linejoin: miter; stroke-miterlimit: 4; fill: rgb(170,141,46); fill-rule: nonzero; opacity: 1;" vector-effect="non-scaling-stroke"  transform=" translate(-200.44, -60.03)" d="M 394.94 2.384 C 393.88 3.133 388.949 6.253 383.984 9.317 C 379.018 12.381 374.533 15.279 374.016 15.757 C 372.046 17.581 346.866 32.413 339.03 36.365 C 331.893 39.965 317.346 45.13 312.048 45.945 C 306.925 46.733 299.379 49.092 294.515 51.426 L 291.564 52.842 L 295.18 49.127 C 300.155 44.014 299.481 40.577 293.716 41.659 C 292.222 41.939 279.577 49.992 277.108 52.235 C 269.628 59.033 256.348 63.96 252.892 61.221 C 251.047 59.76 251.093 59.677 255.479 56.586 C 259.168 53.986 262.897 50.85 265.398 48.243 C 267.797 45.742 266.158 42.41 262.528 42.41 C 257.375 42.41 246.698 52.655 245.474 58.773 C 244.813 62.078 237.139 64.361 233.024 62.477 L 230.324 61.241 L 232.325 58.072 C 236.423 51.584 235.637 47.229 230.369 47.229 C 224.581 47.229 221.97 52.592 224.799 58.669 L 225.975 61.194 L 224.433 62.351 C 212.519 71.296 206.786 66.204 215.481 54.399 C 216.773 52.644 217.831 50.963 217.831 50.664 C 217.831 49.463 214.932 50.13 213.134 51.744 C 205.091 58.961 188.765 67.229 182.554 67.229 C 178.113 67.229 177.582 65.67 180.421 60.964 C 183.926 55.155 180.399 54.839 174.049 60.392 C 166.633 66.878 151.686 68.701 157.229 62.444 C 161.886 57.188 172.176 53.468 174.657 56.145 C 176.639 58.283 180.241 56.744 180.241 53.759 C 180.241 50.78 174.203 50.122 168.926 52.525 C 167.757 53.058 166.61 53.494 166.377 53.494 C 165.644 53.494 159.942 56.388 155.347 59.093 C 142.295 66.774 128.924 69.064 126.254 64.075 C 125.773 63.177 126.098 62.93 130.369 60.948 C 140.213 56.379 143.266 52.771 139.417 50.252 C 132.376 45.644 116.775 59.836 120.649 67.326 C 122.96 71.797 133.133 71.785 145.078 67.299 C 149.363 65.689 149.398 65.685 149.398 66.739 C 149.398 71.445 159.128 71.546 168.299 66.935 C 172.81 64.667 172.19 64.636 173.691 67.197 C 175.403 70.119 177.119 71.229 180.276 71.46 C 181.714 71.566 168.449 71.632 150.797 71.609 C 127.579 71.578 118.515 71.415 118.025 71.018 C 117.654 70.716 116.211 70.316 114.819 70.129 C 113.361 69.933 112.289 69.544 112.289 69.211 C 112.289 68.252 125.275 48.368 129.949 42.168 C 132.348 38.988 134.857 35.518 135.525 34.458 C 137.408 31.471 143.11 24.27 147.044 19.913 C 154.329 11.842 156.496 8.185 154.457 7.403 C 151.479 6.26 145.917 12.022 133.356 29.26 C 131.577 31.703 130.11 33.871 130.097 34.079 C 130.084 34.288 128.794 36.193 127.23 38.313 C 124.18 42.449 120.672 47.897 113.419 59.759 C 107.397 69.61 108.546 68.812 102.314 67.474 C 99.451 66.859 96.849 66.226 96.533 66.066 C 95.964 65.778 103.88 53.492 115.537 36.568 C 121.96 27.245 123.451 25.333 128.104 20.455 C 133.521 14.777 137.329 10.015 137.332 8.916 C 137.34 6.176 135.366 6.17 129.86 8.893 C 124.61 11.49 124.467 11.655 125.368 14.103 C 126.362 16.804 125.833 18.239 122.375 22.214 C 118.885 26.227 116.171 29.867 111.811 36.386 C 109.86 39.301 107.032 43.313 105.525 45.301 C 104.018 47.289 101.54 50.855 100.018 53.226 C 96.694 58.403 91.683 65.06 91.111 65.06 C 90.884 65.06 84.118 63.422 76.075 61.421 C 44.63 53.594 36.763 52.92 24.096 56.966 C -10.627 68.059 -4.703 104.185 31.562 102.493 C 50.606 101.604 68.397 93.114 86.038 76.498 L 90.389 72.4 L 96.64 73.831 C 100.078 74.617 102.942 75.312 103.004 75.374 C 103.067 75.436 101.905 78.13 100.423 81.361 C 98.467 85.625 97.811 87.565 98.03 88.437 C 98.673 91 101.687 89.074 101.687 86.1 C 101.687 84.092 106.784 76.167 108.135 76.075 C 108.697 76.037 123.795 76.054 141.687 76.114 C 187.938 76.267 249.682 73.966 270.843 71.3 C 276.09 70.639 281.946 70.041 296.867 68.642 C 336.248 64.949 358.403 57.223 359.401 46.834 L 359.62 44.551 L 363.535 43.164 C 376.883 38.436 384.918 31.761 383.886 26.258 C 383.594 24.702 383.709 24.568 388.548 20.821 C 397.82 13.641 400.105 10.458 399.901 5.004 L 399.759 1.205 L 398.313 1.113 C 397.391 1.055 396.17 1.515 394.94 2.384 M 394.902 9.23 C 392.034 14.775 374.68 28.178 366.32 31.305 C 363.024 32.537 362.372 33.86 364.637 34.721 C 365.893 35.199 370.964 33.011 376.386 29.652 C 377.313 29.077 378.335 28.452 378.655 28.263 C 379.951 27.498 378.129 30.996 376.202 32.972 C 372.814 36.447 365.372 39.942 353.516 43.626 C 347.342 45.545 346.024 46.155 346.024 47.095 C 346.024 48.199 348.269 48.27 351.335 47.263 C 354.779 46.133 354.904 46.163 354.491 48.038 C 353.182 53.972 340.982 58.688 323.333 60.083 C 315.152 60.729 310.287 56.472 314.312 52.188 C 315.96 50.434 322.541 47.126 329.88 44.363 C 337.216 41.601 348.69 36.289 351.052 34.562 C 351.865 33.967 358.671 29.797 366.177 25.294 C 373.683 20.792 380.249 16.715 380.768 16.235 C 382.476 14.653 395.418 6.762 395.571 7.208 C 395.654 7.449 395.352 8.359 394.902 9.23 M 259.977 48.536 C 258.6 50.638 253.198 54.929 251.918 54.937 C 251.143 54.942 253.515 51.166 255.235 49.655 C 258.456 46.827 261.58 46.09 259.977 48.536 M 288.191 48.763 C 287.606 49.377 286.771 50.422 286.335 51.084 C 285.899 51.747 284.404 53.884 283.012 55.833 C 278.276 62.469 280.014 63.671 287.678 59.061 C 290.479 57.376 294.398 55.281 296.386 54.405 C 298.373 53.528 300.108 52.667 300.241 52.491 C 300.447 52.217 307.196 49.639 307.706 49.639 C 307.804 49.639 307.683 50.342 307.436 51.202 C 306.023 56.128 307.474 59.909 311.464 61.695 L 313.328 62.53 L 311.242 62.834 C 299.835 64.498 248.77 68.47 223.614 69.651 C 220.036 69.819 216.675 70.07 216.145 70.209 C 215.614 70.348 216.956 69.372 219.125 68.041 C 221.295 66.709 223.893 65.06 224.9 64.376 C 227.257 62.774 227.632 62.799 231.963 64.856 L 235.593 66.58 L 238.587 65.813 C 240.234 65.391 242.502 64.638 243.628 64.14 L 245.675 63.235 L 246.19 64.365 C 249.255 71.092 266.728 64.768 285.301 50.211 C 288.992 47.318 290.091 46.768 288.191 48.763 M 232.003 51.18 C 232.519 52.655 231.598 55.136 229.633 57.567 L 228.484 58.989 L 227.917 57.567 C 226.772 54.693 226.776 51.778 227.925 50.629 C 229.374 49.18 231.4 49.453 232.003 51.18 M 134.94 54.024 C 134.94 55.374 130.32 58.488 126.753 59.542 L 125.553 59.897 L 126.793 58.262 C 129.157 55.145 134.94 52.137 134.94 54.024 M 206.97 61.807 C 205.341 65.306 205.414 67.22 207.239 68.925 L 208.694 70.285 L 204.95 70.568 C 202.89 70.723 197.301 70.956 192.53 71.086 L 183.855 71.32 L 188.292 69.688 C 193.066 67.93 202.658 63.071 205.936 60.748 C 207.045 59.963 207.996 59.31 208.05 59.299 C 208.104 59.287 207.618 60.416 206.97 61.807 M 46.983 61.054 C 54.408 62.189 85.85 70.32 86.136 71.178 C 86.788 73.136 75.236 82.778 65.194 88.659 C 39.157 103.905 4.703 98.964 4.763 79.992 C 4.809 65.452 22.843 57.362 46.983 61.054 M 254.819 82.599 C 253.972 83.241 253.644 84.819 254.357 84.819 C 254.889 84.819 254.205 92.224 252.774 101.952 C 251.189 112.734 251.11 111.974 253.945 113.194 C 260.608 116.06 266.273 113.117 268.171 105.802 C 270.526 96.723 265.399 90.412 259.127 94.668 L 257.396 95.843 L 257.863 94.617 C 258.677 92.474 259.025 83.509 258.327 82.667 C 257.579 81.766 255.958 81.734 254.819 82.599 M 168.434 83.828 C 166.831 84.482 164.898 86.726 164.327 88.597 C 164.031 89.567 163.558 90.835 163.276 91.413 C 162.994 91.992 162.894 92.805 163.053 93.221 C 163.264 93.77 163.045 93.976 162.25 93.976 C 159.505 93.976 159.071 96.848 161.807 96.906 C 162.801 96.926 163.343 97.053 163.012 97.187 C 162.65 97.333 162.41 98.333 162.41 99.691 C 162.41 105.696 160.654 114.594 159.134 116.293 C 158.09 117.46 158.893 118.746 160.785 118.938 C 162.241 119.086 164.72 116.671 164.115 115.693 C 163.969 115.457 164.055 115.19 164.306 115.101 C 164.726 114.952 165.751 107.985 166.51 100.12 L 166.824 96.867 L 169.099 96.867 C 171.599 96.867 172.53 96.265 172.53 94.648 C 172.53 93.643 172.375 93.599 169.689 93.843 L 166.848 94.101 L 167.279 91.795 C 168.215 86.786 170.805 84.874 173.182 87.438 C 174.51 88.872 175.065 88.963 176.11 87.917 C 178.856 85.171 172.908 82.002 168.434 83.828 M 181.302 84.804 C 178.91 86.537 178.57 87.132 177.776 90.975 C 177.328 93.146 176.943 93.976 176.386 93.976 C 174.269 93.976 173.726 96.724 175.796 96.957 L 177.135 97.108 L 176.554 103.492 C 175.938 110.263 174.874 114.86 173.592 116.293 C 172.537 117.472 173.357 118.747 175.294 118.942 C 177.93 119.207 179.109 114.993 180.491 100.361 L 180.821 96.867 L 182.972 96.867 C 185.722 96.867 186.988 96.184 186.988 94.7 C 186.988 93.553 186.927 93.536 183.9 93.819 L 180.812 94.107 L 181.31 91.752 C 181.584 90.457 181.948 89.289 182.12 89.157 C 182.291 89.024 182.811 88.319 183.275 87.59 C 184.364 85.88 186.165 85.847 187.707 87.511 C 189.007 88.914 190.593 88.778 191.086 87.222 C 192.234 83.607 185.315 81.897 181.302 84.804 M 199.512 85.495 C 198.588 86.132 196.91 87.219 195.783 87.911 C 192.157 90.138 193.038 92.728 196.849 91.043 C 201.916 88.802 203.741 87.005 202.603 85.38 C 201.69 84.076 201.566 84.081 199.512 85.495 M 220.818 85.846 C 216.417 88.025 214.886 93.323 217.84 96.153 C 219.198 97.454 219.236 97.58 218.403 98.051 C 209.592 103.023 212.858 114.217 223.119 114.217 C 229.62 114.217 232.994 111.509 235.28 104.458 C 236.261 101.432 236.432 101.205 237.731 101.205 C 240.513 101.205 243.373 98.449 243.373 95.768 C 243.373 92.961 240.298 92.916 240.185 95.721 C 240.074 98.493 240.13 98.433 237.952 98.122 C 230.782 97.097 230.607 97.111 228.654 98.901 C 226.133 101.212 225.852 104.819 228.193 104.819 C 229.513 104.819 229.644 104.672 229.697 103.133 C 229.793 100.38 229.843 100.241 230.723 100.248 C 235.497 100.29 230.536 110.325 225.358 111.101 C 216.131 112.485 214.794 100.551 223.954 98.579 C 226.747 97.977 226.666 95.422 223.854 95.422 C 220.662 95.422 219.625 91.626 222.132 89.12 C 224.314 86.937 228.916 87.928 228.916 90.581 C 228.916 91.541 230.343 91.079 231.142 89.86 C 233.612 86.09 226.171 83.197 220.818 85.846 M 128.649 94.855 C 122.174 98.969 120.75 109.377 126.19 112.827 C 130.973 115.86 139.093 113.622 136.774 109.91 C 135.98 108.637 135.722 108.659 134.261 110.12 C 132.016 112.365 128.571 111.498 127.906 108.521 C 127.747 107.81 127.439 106.524 127.221 105.663 C 126.989 104.744 127.008 104.096 127.268 104.096 C 127.511 104.096 127.711 103.587 127.711 102.963 C 127.711 97.903 132.274 94.64 135.225 97.59 C 137.128 99.493 138.795 98.892 138.795 96.302 C 138.795 93.309 132.496 92.411 128.649 94.855 M 146.185 94.268 C 137.955 98.327 137.621 114.223 145.765 114.215 C 147.731 114.213 150.553 112.887 151.687 111.432 C 152.213 110.757 152.289 110.816 152.289 111.897 C 152.289 113.407 153.318 114.345 154.744 114.133 C 156.274 113.906 157.015 112.54 156.262 111.334 C 155.432 110.005 155.544 106.635 156.608 100.964 C 157.505 96.178 157.504 96.139 156.548 95.313 C 154.431 93.485 148.903 92.928 146.185 94.268 M 193.205 94.453 C 186.377 98.063 184.704 109.735 190.508 113.274 C 193.833 115.302 201.446 113.796 201.446 111.112 C 201.446 109.297 199.799 108.786 198.333 110.144 C 195.67 112.613 192.16 111.41 191.333 107.746 L 190.945 106.024 L 192.942 106.021 C 200.943 106.011 206.417 98.032 200.977 94.309 C 199.364 93.206 195.427 93.279 193.205 94.453 M 276.788 94.268 C 268.542 98.335 268.177 114.217 276.33 114.217 C 278.352 114.217 281.633 112.714 282.369 111.449 C 282.796 110.716 282.864 110.773 282.877 111.869 C 282.895 113.408 283.916 114.345 285.346 114.133 C 286.877 113.906 287.617 112.54 286.864 111.334 C 286.034 110.005 286.147 106.635 287.21 100.964 C 288.107 96.178 288.107 96.139 287.151 95.313 C 285.034 93.485 279.506 92.928 276.788 94.268 M 293.679 94.066 C 293.485 94.381 293.291 96.713 293.25 99.248 C 293.207 101.841 292.912 104.346 292.577 104.973 C 292.248 105.587 291.941 107.755 291.893 109.791 L 291.807 113.494 L 293.78 113.639 L 295.754 113.783 L 296.062 108.388 C 296.506 100.634 299.569 95.546 302.645 97.453 C 303.911 98.238 304.649 97.317 304.463 95.185 C 304.264 92.905 301.593 92.9 298.891 95.174 L 297.467 96.372 L 297.179 94.933 C 296.872 93.398 294.461 92.801 293.679 94.066 M 152.586 97.081 C 154.604 98.495 152.119 107.945 149.105 110.316 C 146.029 112.736 143.947 110.841 143.967 105.639 C 143.994 98.573 148.429 94.169 152.586 97.081 M 198.474 97.518 C 199.078 100.702 197.306 102.716 193.373 103.314 C 191.089 103.662 190.806 103.124 191.838 100.393 C 193.154 96.909 197.964 94.826 198.474 97.518 M 263.508 96.988 C 264.683 98.421 265.1 101.618 264.536 104.859 C 263.59 110.289 260.569 112.552 256.649 110.766 C 255.383 110.189 254.812 107.47 255.956 107.47 C 256.283 107.47 256.415 106.817 256.295 105.791 C 256.187 104.867 256.262 104.054 256.462 103.984 C 256.662 103.913 256.879 103.042 256.945 102.048 C 257.011 101.054 257.237 100.241 257.448 100.241 C 257.659 100.241 257.831 99.993 257.831 99.691 C 257.831 97.739 262.358 95.584 263.508 96.988 M 283.188 97.081 C 285.206 98.495 282.721 107.945 279.707 110.316 C 276.457 112.873 275.102 111.4 275.095 105.301 C 275.086 98.265 279.083 94.205 283.188 97.081" stroke-linecap="round" />
</g>
<g transform="matrix(NaN NaN NaN NaN 0 0)"  >
<g style=""   >
</g>
</g>
<g transform="matrix(NaN NaN NaN NaN 0 0)"  >
<g style=""   >
</g>
</g>
</svg>